<svg id="Layer_1" enable-background="new 0 0 464 464" height="512" viewBox="0 0 464 464" width="512" xmlns="http://www.w3.org/2000/svg"><g><g><path d="m72 208v-128l160-80 160 80v128l-160-80z" fill="#ffe773"/></g><g><path d="m72 124.61v-44.61l160-80 43.22 21.61c-13.952 25.13-33.338 37.524-50.71 40.38-8.51 1.4-17.2.72-25.81.44-56.768-1.813-58.341 24.707-72.6 42.72-12.781 16.155-34.894 23.729-54.1 19.46z" fill="#f4da6e"/></g><g><path d="m72 464v-128l160-80 160 80v128l-160-80z" fill="#80aaff"/></g><g><path d="m72 380.61v-44.61l160-80 43.22 21.61c-13.952 25.13-33.338 37.524-50.71 40.38-8.51 1.4-17.2.72-25.81.44-56.768-1.813-58.341 24.707-72.6 42.72-12.781 16.155-34.894 23.729-54.1 19.46z" fill="#6994ff"/></g><g><path d="m72 336v-128l160-80c107.467 53.727 72.965 36.477 160 80v128l-160-80z" fill="#befa91"/></g><g><path d="m72 279.14v-71.14l160-80 87.81 43.9c-3.63 10.62-.6 24.7-7.18 34.38-7.32 10.79-23.44 11.27-35.6 6.53-27.431-10.701-40.574-37.684-107.65-4.56-11.49 5.66-22.95 11.82-32.13 20.74-19.824 19.238-30.899 53.788-65.25 50.15z" fill="#d0ffad"/></g></g></svg>